<svg width="30" height="20" viewBox="0 0 30 20" fill="none" xmlns="http://www.w3.org/2000/svg">
<path d="M0 0H30V20H0V0Z" fill="#74ACDF"/>
<path d="M0 6.66666H30V13.3333H0V6.66666Z" fill="white"/>
<path d="M14.8562 10.052L16.1387 12.532C16.1387 12.532 16.1612 12.58 16.1972 12.568C16.2332 12.552 16.2107 12.508 16.2107 12.508L15.1442 9.948M15.1127 10.912C15.0947 11.288 15.3557 11.496 15.3242 11.832C15.2882 12.172 15.4952 12.36 15.5492 12.492C15.5942 12.624 15.4907 12.7 15.5357 12.72C15.5807 12.74 15.6707 12.636 15.6437 12.448C15.6122 12.264 15.4547 12.208 15.4907 11.796C15.5267 11.384 15.3017 11.288 15.3557 10.916" fill="#F6B40E"/>
<path d="M14.8562 10.052L16.1387 12.532C16.1387 12.532 16.1612 12.58 16.1972 12.568C16.2332 12.552 16.2107 12.508 16.2107 12.508L15.1442 9.948M15.1127 10.912C15.0947 11.288 15.3557 11.496 15.3242 11.832C15.2882 12.172 15.4952 12.36 15.5492 12.492C15.5942 12.624 15.4907 12.7 15.5357 12.72C15.5807 12.74 15.6707 12.636 15.6437 12.448C15.6122 12.264 15.4547 12.208 15.4907 11.796C15.5267 11.384 15.3017 11.288 15.3557 10.916" stroke="#85340A" stroke-width="0.0710256"/>
<path d="M14.8444 9.99907L14.9616 12.7265C14.9616 12.7265 14.9617 12.7785 15.0001 12.7797C15.0403 12.7772 15.0384 12.7289 15.0384 12.7289L15.1552 10.001M14.7111 10.8809C14.5326 11.2221 14.6842 11.5031 14.5104 11.8028C14.3308 12.1046 14.4411 12.3487 14.4342 12.4891C14.4189 12.6263 14.2906 12.6613 14.3235 12.6951C14.3565 12.7289 14.4844 12.6634 14.5404 12.4806C14.5905 12.2999 14.4691 12.1945 14.6798 11.8261C14.8904 11.4578 14.7239 11.2925 14.9339 10.9672" fill="#F6B40E"/>
<path d="M14.8444 9.99907L14.9616 12.7265C14.9616 12.7265 14.9617 12.7785 15.0001 12.7797C15.0403 12.7772 15.0384 12.7289 15.0384 12.7289L15.1552 10.001M14.7111 10.8809C14.5326 11.2221 14.6842 11.5031 14.5104 11.8028C14.3308 12.1046 14.4411 12.3487 14.4342 12.4891C14.4189 12.6263 14.2906 12.6613 14.3235 12.6951C14.3565 12.7289 14.4844 12.6634 14.5404 12.4806C14.5905 12.2999 14.4691 12.1945 14.6798 11.8261C14.8904 11.4578 14.7239 11.2925 14.9339 10.9672" stroke="#85340A" stroke-width="0.0710256"/>
<path d="M14.8567 9.94628L13.7908 12.506C13.7908 12.506 13.7685 12.5541 13.8035 12.5682C13.8417 12.5795 13.8608 12.5343 13.8608 12.5343L15.1431 10.0538M14.354 10.7156C14.0421 10.9702 14.0612 11.2813 13.7717 11.4991C13.4757 11.7169 13.4726 11.9799 13.4057 12.1072C13.3326 12.2288 13.1989 12.2175 13.2148 12.2599C13.2307 12.3024 13.3771 12.2854 13.5076 12.1355C13.6317 11.9856 13.5648 11.847 13.918 11.5783C14.2712 11.3096 14.1885 11.1003 14.5226 10.8712" fill="#F6B40E"/>
<path d="M14.8567 9.94628L13.7908 12.506C13.7908 12.506 13.7685 12.5541 13.8035 12.5682C13.8417 12.5795 13.8608 12.5343 13.8608 12.5343L15.1431 10.0538M14.354 10.7156C14.0421 10.9702 14.0612 11.2813 13.7717 11.4991C13.4757 11.7169 13.4726 11.9799 13.4057 12.1072C13.3326 12.2288 13.1989 12.2175 13.2148 12.2599C13.2307 12.3024 13.3771 12.2854 13.5076 12.1355C13.6317 11.9856 13.5648 11.847 13.918 11.5783C14.2712 11.3096 14.1885 11.1003 14.5226 10.8712" stroke="#85340A" stroke-width="0.0710256"/>
<path d="M14.8909 9.90165L12.8041 11.9039C12.8041 11.9039 12.7628 11.9408 12.7891 11.9657C12.8195 11.9892 12.8566 11.9539 12.8566 11.9539L15.1092 10.0984M14.0952 10.4414C13.6975 10.5705 13.5812 10.8644 13.22 10.9672C12.8528 11.0677 12.7366 11.3096 12.6201 11.4045C12.5001 11.492 12.3815 11.4361 12.3779 11.4807C12.3744 11.5253 12.5169 11.5594 12.702 11.4653C12.8812 11.369 12.8791 11.2182 13.3211 11.0901C13.7631 10.962 13.7768 10.7405 14.1841 10.6425" fill="#F6B40E"/>
<path d="M14.8909 9.90165L12.8041 11.9039C12.8041 11.9039 12.7628 11.9408 12.7891 11.9657C12.8195 11.9892 12.8566 11.9539 12.8566 11.9539L15.1092 10.0984M14.0952 10.4414C13.6975 10.5705 13.5812 10.8644 13.22 10.9672C12.8528 11.0677 12.7366 11.3096 12.6201 11.4045C12.5001 11.492 12.3815 11.4361 12.3779 11.4807C12.3744 11.5253 12.5169 11.5594 12.702 11.4653C12.8812 11.369 12.8791 11.2182 13.3211 11.0901C13.7631 10.962 13.7768 10.7405 14.1841 10.6425" stroke="#85340A" stroke-width="0.0710256"/>
<path d="M15.1935 10.976C15.216 11.336 15.4455 11.496 15.4005 11.828C15.4995 11.568 15.261 11.364 15.2745 10.98M14.928 10.028L15.8055 11.732L15.072 9.97598" fill="#85340A"/>
<path d="M14.7586 10.9675C14.6244 11.3078 14.7676 11.5337 14.5831 11.8251C14.7865 11.6186 14.6539 11.349 14.8317 10.9988M14.9215 10.0014L14.9986 11.8742L15.0769 10.0023" fill="#85340A"/>
<path d="M14.3605 10.8118C14.09 11.0805 14.125 11.3378 13.8291 11.5443C14.1059 11.4227 14.0996 11.1285 14.4146 10.8655M14.9269 9.97454L14.1919 11.731L15.0701 10.0283" fill="#85340A"/>
<path d="M14.0596 10.5324C13.694 10.6887 13.6155 10.9384 13.2532 11.0285C13.5613 11.0103 13.6821 10.7363 14.0864 10.6005M14.9433 9.9516L13.508 11.3243L15.0524 10.05" fill="#85340A"/>
<path d="M14.9416 9.87198L12.1516 11.012C12.1516 11.012 12.0976 11.032 12.1111 11.064C12.1291 11.096 12.1786 11.076 12.1786 11.076L15.0586 10.128M13.9741 10.1C13.5511 10.084 13.3171 10.316 12.9391 10.288C12.5566 10.256 12.3451 10.44 12.1966 10.488C12.0481 10.528 11.9626 10.436 11.9401 10.476C11.9176 10.516 12.0346 10.596 12.2461 10.572C12.4531 10.544 12.5161 10.404 12.9796 10.436C13.4431 10.468 13.5511 10.268 13.9696 10.316" fill="#F6B40E"/>
<path d="M14.9416 9.87198L12.1516 11.012C12.1516 11.012 12.0976 11.032 12.1111 11.064C12.1291 11.096 12.1786 11.076 12.1786 11.076L15.0586 10.128M13.9741 10.1C13.5511 10.084 13.3171 10.316 12.9391 10.288C12.5566 10.256 12.3451 10.44 12.1966 10.488C12.0481 10.528 11.9626 10.436 11.9401 10.476C11.9176 10.516 12.0346 10.596 12.2461 10.572C12.4531 10.544 12.5161 10.404 12.9796 10.436C13.4431 10.468 13.5511 10.268 13.9696 10.316" stroke="#85340A" stroke-width="0.0710256"/>
<path d="M15.001 9.86184L11.9326 9.96601C11.9326 9.96601 11.8741 9.96612 11.8728 10.0003C11.8757 10.036 11.93 10.0343 11.93 10.0343L14.9989 10.1382M14.009 9.74338C13.6251 9.58471 13.309 9.71945 12.9719 9.565C12.6323 9.40532 12.3576 9.50337 12.1998 9.49721C12.0454 9.48365 12.006 9.36957 11.968 9.39887C11.93 9.42817 12.0036 9.54188 12.2094 9.59165C12.4127 9.63619 12.5311 9.52828 12.9456 9.71551C13.36 9.90274 13.5459 9.7547 13.9119 9.94141" fill="#F6B40E"/>
<path d="M15.001 9.86184L11.9326 9.96601C11.9326 9.96601 11.8741 9.96612 11.8728 10.0003C11.8757 10.036 11.93 10.0343 11.93 10.0343L14.9989 10.1382M14.009 9.74338C13.6251 9.58471 13.309 9.71945 12.9719 9.565C12.6323 9.40532 12.3576 9.50337 12.1998 9.49721C12.0454 9.48365 12.006 9.36957 11.968 9.39887C11.93 9.42817 12.0036 9.54188 12.2094 9.59165C12.4127 9.63619 12.5311 9.52828 12.9456 9.71551C13.36 9.90274 13.5459 9.7547 13.9119 9.94141" stroke="#85340A" stroke-width="0.0710256"/>
<path d="M15.0603 9.87272L12.1806 8.9252C12.1806 8.9252 12.1265 8.9054 12.1106 8.93651C12.0979 8.97045 12.1488 8.98742 12.1488 8.98742L14.9394 10.1273M14.1948 9.42583C13.9085 9.14864 13.5584 9.16561 13.3134 8.90823C13.0684 8.64518 12.7725 8.64235 12.6293 8.58296C12.4925 8.5179 12.5052 8.39911 12.4575 8.41325C12.4097 8.42739 12.4288 8.5575 12.5975 8.67347C12.7661 8.78377 12.922 8.72438 13.2243 9.03833C13.5266 9.35229 13.7621 9.27875 14.0198 9.57573" fill="#F6B40E"/>
<path d="M15.0603 9.87272L12.1806 8.9252C12.1806 8.9252 12.1265 8.9054 12.1106 8.93651C12.0979 8.97045 12.1488 8.98742 12.1488 8.98742L14.9394 10.1273M14.1948 9.42583C13.9085 9.14864 13.5584 9.16561 13.3134 8.90823C13.0684 8.64518 12.7725 8.64235 12.6293 8.58296C12.4925 8.5179 12.5052 8.39911 12.4575 8.41325C12.4097 8.42739 12.4288 8.5575 12.5975 8.67347C12.7661 8.78377 12.922 8.72438 13.2243 9.03833C13.5266 9.35229 13.7621 9.27875 14.0198 9.57573" stroke="#85340A" stroke-width="0.0710256"/>
<path d="M15.1105 9.90297L12.8579 8.04801C12.8579 8.04801 12.8165 8.01132 12.7884 8.03465C12.762 8.06168 12.8017 8.09467 12.8017 8.09467L14.8892 10.097M14.5033 9.19569C14.358 8.84218 14.0274 8.7388 13.9118 8.41766C13.7987 8.0913 13.5265 7.98802 13.4198 7.88444C13.3214 7.77779 13.3843 7.67237 13.3341 7.6692C13.2839 7.66603 13.2455 7.79273 13.3514 7.95723C13.4597 8.11651 13.6294 8.11467 13.7735 8.50756C13.9176 8.90044 14.1668 8.9126 14.2771 9.27465" fill="#F6B40E"/>
<path d="M15.1105 9.90297L12.8579 8.04801C12.8579 8.04801 12.8165 8.01132 12.7884 8.03465C12.762 8.06168 12.8017 8.09467 12.8017 8.09467L14.8892 10.097M14.5033 9.19569C14.358 8.84218 14.0274 8.7388 13.9118 8.41766C13.7987 8.0913 13.5265 7.98802 13.4198 7.88444C13.3214 7.77779 13.3843 7.67237 13.3341 7.6692C13.2839 7.66603 13.2455 7.79273 13.3514 7.95723C13.4597 8.11651 13.6294 8.11467 13.7735 8.50756C13.9176 8.90044 14.1668 8.9126 14.2771 9.27465" stroke="#85340A" stroke-width="0.0710256"/>
<path d="M13.9019 10.172C13.4969 10.192 13.3169 10.396 12.9434 10.356C13.2359 10.444 13.4654 10.232 13.8974 10.244M14.9684 9.936L13.0514 10.716L15.0269 10.064" fill="#85340A"/>
<path d="M13.9115 9.78539C13.5287 9.66611 13.2746 9.79335 12.9468 9.62934C13.1791 9.81014 13.4824 9.69235 13.8764 9.85038M14.9984 9.93014L12.8916 9.99868L14.9974 10.0683" fill="#85340A"/>
<path d="M14.0868 9.43148C13.7845 9.19106 13.495 9.22218 13.2627 8.95913C13.3995 9.20521 13.7305 9.19955 14.0264 9.47956M15.0287 9.93494L13.0527 9.28157L14.9682 10.0622" fill="#85340A"/>
<path d="M14.4009 9.16411C14.2251 8.83917 13.9442 8.76942 13.8428 8.44738C13.8633 8.72127 14.1714 8.82861 14.3243 9.18797M15.0543 9.94964L13.51 8.67384L14.9436 10.0467" fill="#85340A"/>
<path d="M15.144 9.948L13.8615 7.468C13.8615 7.468 13.839 7.42 13.803 7.432C13.767 7.448 13.7895 7.492 13.7895 7.492L14.856 10.052M14.8875 9.088C14.9055 8.712 14.6445 8.504 14.676 8.168C14.712 7.828 14.505 7.64 14.451 7.508C14.406 7.376 14.5095 7.3 14.4645 7.28C14.4195 7.26 14.3295 7.364 14.3565 7.552C14.388 7.736 14.5455 7.792 14.5095 8.204C14.4735 8.616 14.6985 8.712 14.6445 9.084" fill="#F6B40E"/>
<path d="M15.144 9.948L13.8615 7.468C13.8615 7.468 13.839 7.42 13.803 7.432C13.767 7.448 13.7895 7.492 13.7895 7.492L14.856 10.052M14.8875 9.088C14.9055 8.712 14.6445 8.504 14.676 8.168C14.712 7.828 14.505 7.64 14.451 7.508C14.406 7.376 14.5095 7.3 14.4645 7.28C14.4195 7.26 14.3295 7.364 14.3565 7.552C14.388 7.736 14.5455 7.792 14.5095 8.204C14.4735 8.616 14.6985 8.712 14.6445 9.084" stroke="#85340A" stroke-width="0.0710256"/>
<path d="M15.1554 10.0009L15.0382 7.27345C15.0382 7.27345 15.0381 7.22145 14.9996 7.22029C14.9595 7.22283 14.9613 7.27113 14.9613 7.27113L14.8445 9.99905M15.2886 9.11914C15.4671 8.77789 15.3156 8.49694 15.4893 8.19723C15.669 7.89536 15.5586 7.65125 15.5656 7.51093C15.5808 7.37367 15.7092 7.33867 15.6762 7.30488C15.6433 7.2711 15.5153 7.33656 15.4593 7.51944C15.4092 7.70015 15.5306 7.80546 15.32 8.17385C15.1094 8.54225 15.2759 8.70747 15.0659 9.03279" fill="#F6B40E"/>
<path d="M15.1554 10.0009L15.0382 7.27345C15.0382 7.27345 15.0381 7.22145 14.9996 7.22029C14.9595 7.22283 14.9613 7.27113 14.9613 7.27113L14.8445 9.99905M15.2886 9.11914C15.4671 8.77789 15.3156 8.49694 15.4893 8.19723C15.669 7.89536 15.5586 7.65125 15.5656 7.51093C15.5808 7.37367 15.7092 7.33867 15.6762 7.30488C15.6433 7.2711 15.5153 7.33656 15.4593 7.51944C15.4092 7.70015 15.5306 7.80546 15.32 8.17385C15.1094 8.54225 15.2759 8.70747 15.0659 9.03279" stroke="#85340A" stroke-width="0.0710256"/>
<path d="M15.1433 10.0537L16.2092 7.49399C16.2092 7.49399 16.2315 7.44591 16.1965 7.43177C16.1583 7.42045 16.1392 7.46571 16.1392 7.46571L14.8569 9.94624M15.646 9.28439C15.9579 9.02983 15.9388 8.7187 16.2283 8.50091C16.5243 8.28312 16.5274 8.02008 16.5943 7.8928C16.6674 7.77118 16.8011 7.78249 16.7852 7.74007C16.7693 7.69764 16.6229 7.71461 16.4924 7.86452C16.3683 8.01442 16.4352 8.15302 16.082 8.42172C15.7288 8.69042 15.8115 8.89972 15.4774 9.12882" fill="#F6B40E"/>
<path d="M15.1433 10.0537L16.2092 7.49399C16.2092 7.49399 16.2315 7.44591 16.1965 7.43177C16.1583 7.42045 16.1392 7.46571 16.1392 7.46571L14.8569 9.94624M15.646 9.28439C15.9579 9.02983 15.9388 8.7187 16.2283 8.50091C16.5243 8.28312 16.5274 8.02008 16.5943 7.8928C16.6674 7.77118 16.8011 7.78249 16.7852 7.74007C16.7693 7.69764 16.6229 7.71461 16.4924 7.86452C16.3683 8.01442 16.4352 8.15302 16.082 8.42172C15.7288 8.69042 15.8115 8.89972 15.4774 9.12882" stroke="#85340A" stroke-width="0.0710256"/>
<path d="M15.1091 10.0984L17.1959 8.09608C17.1959 8.09608 17.2372 8.05923 17.2109 8.03426C17.1805 8.01082 17.1434 8.04613 17.1434 8.04613L14.8908 9.90164M15.9048 9.5586C16.3025 9.42949 16.4188 9.13556 16.78 9.03284C17.1472 8.93229 17.2634 8.69036 17.3799 8.5955C17.4999 8.50803 17.6185 8.56394 17.6221 8.51933C17.6256 8.47472 17.4831 8.44061 17.298 8.53473C17.1188 8.63101 17.1209 8.78178 16.6789 8.90989C16.2369 9.03799 16.2232 9.2595 15.8159 9.35751" fill="#F6B40E"/>
<path d="M15.1091 10.0984L17.1959 8.09608C17.1959 8.09608 17.2372 8.05923 17.2109 8.03426C17.1805 8.01082 17.1434 8.04613 17.1434 8.04613L14.8908 9.90164M15.9048 9.5586C16.3025 9.42949 16.4188 9.13556 16.78 9.03284C17.1472 8.93229 17.2634 8.69036 17.3799 8.5955C17.4999 8.50803 17.6185 8.56394 17.6221 8.51933C17.6256 8.47472 17.4831 8.44061 17.298 8.53473C17.1188 8.63101 17.1209 8.78178 16.6789 8.90989C16.2369 9.03799 16.2232 9.2595 15.8159 9.35751" stroke="#85340A" stroke-width="0.0710256"/>
<path d="M14.8065 9.02399C14.784 8.66399 14.5545 8.50399 14.5995 8.17199C14.5005 8.43199 14.739 8.63599 14.7255 9.01999M15.072 9.97199L14.1945 8.26799L14.928 10.024" fill="#85340A"/>
<path d="M15.2414 9.03247C15.3756 8.69222 15.2324 8.46633 15.4169 8.17491C15.2135 8.38144 15.3461 8.65104 15.1683 9.00122M15.0785 9.99862L15.0014 8.12584L14.9231 9.99768" fill="#85340A"/>
<path d="M15.6395 9.18824C15.91 8.91954 15.875 8.66215 16.1709 8.45568C15.8941 8.5773 15.9004 8.87146 15.5854 9.1345M15.0731 10.0255L15.8081 8.269L14.9299 9.97172" fill="#85340A"/>
<path d="M15.9404 9.46758C16.306 9.31134 16.3845 9.06163 16.7468 8.97154C16.4387 8.98974 16.3179 9.26366 15.9136 9.39953M15.0567 10.0484L16.492 8.67568L14.9476 9.95004" fill="#85340A"/>
<path d="M15.0584 10.128L17.8484 8.98802C17.8484 8.98802 17.9024 8.96802 17.8889 8.93602C17.8709 8.90402 17.8214 8.92402 17.8214 8.92402L14.9414 9.87202M16.0259 9.90002C16.4489 9.91602 16.6829 9.68402 17.0609 9.71202C17.4434 9.74402 17.6549 9.56002 17.8034 9.51202C17.9519 9.47202 18.0374 9.56402 18.0599 9.52402C18.0824 9.48402 17.9654 9.40402 17.7539 9.42802C17.5469 9.45602 17.4839 9.59602 17.0204 9.56402C16.5569 9.53202 16.4489 9.73202 16.0304 9.68402" fill="#F6B40E"/>
<path d="M15.0584 10.128L17.8484 8.98802C17.8484 8.98802 17.9024 8.96802 17.8889 8.93602C17.8709 8.90402 17.8214 8.92402 17.8214 8.92402L14.9414 9.87202M16.0259 9.90002C16.4489 9.91602 16.6829 9.68402 17.0609 9.71202C17.4434 9.74402 17.6549 9.56002 17.8034 9.51202C17.9519 9.47202 18.0374 9.56402 18.0599 9.52402C18.0824 9.48402 17.9654 9.40402 17.7539 9.42802C17.5469 9.45602 17.4839 9.59602 17.0204 9.56402C16.5569 9.53202 16.4489 9.73202 16.0304 9.68402" stroke="#85340A" stroke-width="0.0710256"/>
<path d="M14.999 10.1382L18.0674 10.034C18.0674 10.034 18.1259 10.0339 18.1272 9.99972C18.1243 9.96404 18.07 9.96568 18.07 9.96568L15.0011 9.86184M15.991 10.2566C16.3749 10.4153 16.691 10.2805 17.0281 10.435C17.3677 10.5947 17.6424 10.4966 17.8002 10.5028C17.9546 10.5164 17.994 10.6304 18.032 10.6011C18.07 10.5718 17.9964 10.4581 17.7906 10.4084C17.5873 10.3638 17.4689 10.4717 17.0544 10.2845C16.64 10.0973 16.4541 10.2453 16.0881 10.0586" fill="#F6B40E"/>
<path d="M14.999 10.1382L18.0674 10.034C18.0674 10.034 18.1259 10.0339 18.1272 9.99972C18.1243 9.96404 18.07 9.96568 18.07 9.96568L15.0011 9.86184M15.991 10.2566C16.3749 10.4153 16.691 10.2805 17.0281 10.435C17.3677 10.5947 17.6424 10.4966 17.8002 10.5028C17.9546 10.5164 17.994 10.6304 18.032 10.6011C18.07 10.5718 17.9964 10.4581 17.7906 10.4084C17.5873 10.3638 17.4689 10.4717 17.0544 10.2845C16.64 10.0973 16.4541 10.2453 16.0881 10.0586" stroke="#85340A" stroke-width="0.0710256"/>
<path d="M14.9394 10.1273L17.8191 11.0748C17.8191 11.0748 17.8732 11.0946 17.8891 11.0635C17.9018 11.0295 17.8509 11.0126 17.8509 11.0126L15.0603 9.87272M15.8049 10.5742C16.0913 10.8514 16.4413 10.8344 16.6863 11.0918C16.9313 11.3548 17.2273 11.3576 17.3705 11.417C17.5073 11.4821 17.4946 11.6009 17.5423 11.5867C17.59 11.5726 17.5709 11.4425 17.4023 11.3265C17.2336 11.2162 17.0777 11.2756 16.7754 10.9617C16.4731 10.6477 16.2377 10.7212 15.9799 10.4243" fill="#F6B40E"/>
<path d="M14.9394 10.1273L17.8191 11.0748C17.8191 11.0748 17.8732 11.0946 17.8891 11.0635C17.9018 11.0295 17.8509 11.0126 17.8509 11.0126L15.0603 9.87272M15.8049 10.5742C16.0913 10.8514 16.4413 10.8344 16.6863 11.0918C16.9313 11.3548 17.2273 11.3576 17.3705 11.417C17.5073 11.4821 17.4946 11.6009 17.5423 11.5867C17.59 11.5726 17.5709 11.4425 17.4023 11.3265C17.2336 11.2162 17.0777 11.2756 16.7754 10.9617C16.4731 10.6477 16.2377 10.7212 15.9799 10.4243" stroke="#85340A" stroke-width="0.0710256"/>
<path d="M14.8893 10.097L17.1418 11.952C17.1418 11.952 17.1833 11.9887 17.2114 11.9654C17.2377 11.9383 17.198 11.9053 17.198 11.9053L15.1106 9.90298M15.4965 10.8043C15.6417 11.1578 15.9724 11.2612 16.088 11.5823C16.2011 11.9087 16.4733 12.012 16.58 12.1156C16.6784 12.2222 16.6155 12.3276 16.6657 12.3308C16.7158 12.334 16.7542 12.2073 16.6483 12.0428C16.54 11.8835 16.3704 11.8853 16.2263 11.4924C16.0822 11.0996 15.833 11.0874 15.7227 10.7253" fill="#F6B40E"/>
<path d="M14.8893 10.097L17.1418 11.952C17.1418 11.952 17.1833 11.9887 17.2114 11.9654C17.2377 11.9383 17.198 11.9053 17.198 11.9053L15.1106 9.90298M15.4965 10.8043C15.6417 11.1578 15.9724 11.2612 16.088 11.5823C16.2011 11.9087 16.4733 12.012 16.58 12.1156C16.6784 12.2222 16.6155 12.3276 16.6657 12.3308C16.7158 12.334 16.7542 12.2073 16.6483 12.0428C16.54 11.8835 16.3704 11.8853 16.2263 11.4924C16.0822 11.0996 15.833 11.0874 15.7227 10.7253" stroke="#85340A" stroke-width="0.0710256"/>
<path d="M16.0979 9.828C16.5029 9.808 16.6829 9.604 17.0564 9.644C16.7639 9.556 16.5344 9.76799 16.1024 9.75599M15.0314 10.064L16.9484 9.284L14.9729 9.93599" fill="#85340A"/>
<path d="M16.0885 10.2146C16.4713 10.3339 16.7254 10.2067 17.0532 10.3707C16.8209 10.1899 16.5176 10.3077 16.1236 10.1496M15.0016 10.0699L17.1084 10.0013L15.0026 9.9317" fill="#85340A"/>
<path d="M15.9132 10.5685C16.2155 10.8089 16.505 10.7778 16.7373 11.0409C16.6005 10.7948 16.2695 10.8005 15.9736 10.5204M14.9713 10.0651L16.9473 10.7184L15.0318 9.93778" fill="#85340A"/>
<path d="M15.5989 10.8359C15.7747 11.1608 16.0556 11.2306 16.1569 11.5526C16.1365 11.2787 15.8283 11.1714 15.6755 10.812M14.9455 10.0504L16.4898 11.3262L15.0561 9.95334" fill="#85340A"/>
<path d="M14.9999 11.1125C15.6911 11.1125 16.2514 10.6144 16.2514 10C16.2514 9.3856 15.6911 8.88751 14.9999 8.88751C14.3086 8.88751 13.7483 9.3856 13.7483 10C13.7483 10.6144 14.3086 11.1125 14.9999 11.1125Z" fill="#F6B40E" stroke="#85340A" stroke-width="0.0941627"/>
<path d="M15.4266 9.76248C15.3422 9.76248 15.2578 9.79581 15.2109 9.86248C15.3047 9.94165 15.5203 9.94581 15.6656 9.85415C15.6349 9.82518 15.5979 9.8021 15.5568 9.78634C15.5156 9.77057 15.4713 9.76245 15.4266 9.76248ZM15.4266 9.77915C15.5063 9.77915 15.5859 9.81248 15.5953 9.84582C15.5016 9.94165 15.3469 9.92915 15.2484 9.86248C15.2673 9.83593 15.2937 9.81426 15.325 9.79964C15.3562 9.78501 15.3913 9.77794 15.4266 9.77915Z" fill="#843511"/>
<path d="M15.4406 9.70831C15.3141 9.70831 15.2859 9.73748 15.2297 9.77915C15.1734 9.82081 15.1406 9.81248 15.1359 9.82081C15.1219 9.82915 15.1359 9.85415 15.15 9.84581C15.1734 9.83748 15.2109 9.82081 15.2672 9.77915C15.3234 9.73748 15.3844 9.73748 15.4406 9.73748C15.6141 9.73748 15.7078 9.86248 15.7312 9.85415C15.7453 9.84581 15.6328 9.70831 15.4406 9.70831Z" fill="#85340A"/>
<path d="M15.7876 9.7625C15.5673 9.59167 15.286 9.5625 15.1313 9.69167C15.095 9.73454 15.0709 9.78457 15.061 9.8375C15.0423 9.93334 15.0751 10.0375 15.1595 10.1458L15.122 10.1625C15.0484 10.0431 15.022 9.90518 15.047 9.77084C15.0531 9.73821 15.0625 9.70614 15.0751 9.675C15.286 9.52084 15.5767 9.50834 15.7876 9.75834V9.7625Z" fill="#85340A"/>
<path d="M15.4218 9.925C15.471 9.925 15.5109 9.88955 15.5109 9.84583C15.5109 9.80211 15.471 9.76666 15.4218 9.76666C15.3726 9.76666 15.3328 9.80211 15.3328 9.84583C15.3328 9.88955 15.3726 9.925 15.4218 9.925Z" fill="#85340A"/>
<path d="M15.6702 9.89585C15.5061 10.0083 15.342 10 15.2483 9.95001C15.1545 9.89585 15.1545 9.87918 15.1733 9.87918C15.192 9.87918 15.2108 9.89585 15.2858 9.93335C15.3655 9.96668 15.478 9.96668 15.6702 9.89585Z" fill="#85340A"/>
<path d="M14.8124 10.1542C14.7974 10.1555 14.783 10.1602 14.7705 10.1679C14.7581 10.1756 14.7481 10.1859 14.7414 10.198C14.7347 10.21 14.7316 10.2234 14.7324 10.2368C14.7331 10.2502 14.7377 10.2633 14.7457 10.2747C14.7536 10.2861 14.7647 10.2955 14.7779 10.3021C14.7911 10.3086 14.806 10.3121 14.8211 10.3121C14.8362 10.3121 14.8511 10.3087 14.8643 10.3022C14.8776 10.2958 14.8887 10.2864 14.8968 10.275C14.9277 10.292 14.9635 10.3007 14.9999 10.3H15.0093C15.0473 10.3018 15.085 10.2931 15.1171 10.275C15.1257 10.2856 15.1372 10.2941 15.1505 10.2997C15.1637 10.3054 15.1784 10.3081 15.193 10.3075C15.2077 10.3069 15.222 10.3031 15.2347 10.2964C15.2473 10.2897 15.2579 10.2803 15.2655 10.2691C15.273 10.2579 15.2774 10.2452 15.278 10.2321C15.2787 10.2191 15.2758 10.2061 15.2695 10.1943C15.2631 10.1825 15.2536 10.1723 15.2417 10.1645C15.2299 10.1568 15.216 10.1518 15.2015 10.15C15.2249 10.1625 15.239 10.1792 15.239 10.2042C15.239 10.2292 15.2155 10.2542 15.1827 10.2542C15.1678 10.2542 15.1535 10.2489 15.1429 10.2395C15.1324 10.2301 15.1265 10.2174 15.1265 10.2042C15.1154 10.2247 15.0981 10.2422 15.0766 10.2547C15.0552 10.2672 15.0302 10.2742 15.0046 10.275C14.9798 10.2735 14.9558 10.2661 14.9352 10.2537C14.9146 10.2412 14.8981 10.2241 14.8874 10.2042C14.8874 10.2111 14.8858 10.218 14.8827 10.2243C14.8796 10.2307 14.875 10.2364 14.8693 10.2411C14.8636 10.2458 14.8568 10.2494 14.8494 10.2516C14.8421 10.2539 14.8342 10.2547 14.8265 10.2542C14.7983 10.2542 14.7702 10.2292 14.7702 10.2042C14.7702 10.1792 14.7843 10.1625 14.8077 10.1542H14.8124ZM14.9062 10.3833C14.8077 10.3833 14.7655 10.4583 14.6812 10.5083C14.728 10.4917 14.7702 10.4583 14.8358 10.425C14.9015 10.3917 14.9624 10.4333 14.9999 10.4333C15.0374 10.4333 15.0937 10.3917 15.164 10.425C15.2296 10.4583 15.2718 10.4917 15.3187 10.5083C15.2296 10.4583 15.1921 10.3833 15.0937 10.3833C15.0609 10.3863 15.0291 10.3947 14.9999 10.4083C14.9711 10.3933 14.9392 10.3834 14.9062 10.3792V10.3833Z" fill="#85340A"/>
<path d="M14.8688 10.4833C14.8313 10.4833 14.7845 10.4917 14.7095 10.5083C14.8829 10.475 14.9204 10.5292 15.0001 10.5292C15.0751 10.5292 15.1126 10.475 15.286 10.5083C15.0985 10.4583 15.0563 10.4917 15.0001 10.4917C14.9626 10.4917 14.9345 10.4792 14.8688 10.4833Z" fill="#85340A"/>
<path d="M14.7187 10.5083H14.6812C14.8827 10.5292 14.789 10.6333 14.9999 10.6333C15.2108 10.6333 15.1171 10.5292 15.3187 10.5083C15.1077 10.4917 15.1733 10.6042 14.9999 10.6042C14.8358 10.6042 14.8874 10.5083 14.7187 10.5083ZM15.1733 10.7875C15.1733 10.7466 15.1551 10.7074 15.1225 10.6785C15.09 10.6496 15.0459 10.6333 14.9999 10.6333C14.9539 10.6333 14.9098 10.6496 14.8773 10.6785C14.8447 10.7074 14.8265 10.7466 14.8265 10.7875C14.8356 10.7527 14.8577 10.7217 14.8892 10.6995C14.9207 10.6773 14.9597 10.6653 14.9999 10.6653C15.0401 10.6653 15.0791 10.6773 15.1106 10.6995C15.1421 10.7217 15.1642 10.7527 15.1733 10.7875Z" fill="#85340A"/>
<path d="M14.2219 9.7625C14.4422 9.59167 14.7235 9.5625 14.8782 9.69167C14.9145 9.73454 14.9386 9.78457 14.9485 9.8375C14.9672 9.93334 14.9344 10.0375 14.85 10.1458L14.8875 10.1625C14.9612 10.0431 14.9876 9.90518 14.9625 9.77084C14.9564 9.73821 14.947 9.70614 14.9344 9.675C14.7235 9.52084 14.4329 9.50834 14.2219 9.75834V9.7625Z" fill="#85340A"/>
<path d="M14.5687 9.70831C14.6952 9.70831 14.7233 9.73748 14.7796 9.77915C14.8358 9.82081 14.8687 9.81248 14.8733 9.82081C14.8874 9.82915 14.8733 9.85415 14.8593 9.84581C14.8358 9.83748 14.7983 9.82081 14.7421 9.77915C14.6858 9.73748 14.6249 9.73748 14.5687 9.73748C14.3952 9.73748 14.3015 9.86248 14.278 9.85415C14.264 9.84581 14.3765 9.70831 14.5687 9.70831Z" fill="#85340A"/>
<path d="M14.564 9.76248C14.4796 9.76248 14.3953 9.79581 14.3484 9.86248C14.4421 9.94165 14.6578 9.94581 14.8031 9.85415C14.7724 9.82518 14.7353 9.8021 14.6942 9.78634C14.6531 9.77057 14.6088 9.76245 14.564 9.76248ZM14.564 9.77915C14.6437 9.77915 14.7234 9.81248 14.7328 9.84582C14.639 9.94165 14.4843 9.92915 14.3859 9.86248C14.4048 9.83593 14.4311 9.81426 14.4624 9.79964C14.4937 9.78501 14.5287 9.77794 14.564 9.77915Z" fill="#843511"/>
<path d="M14.5734 9.925C14.6226 9.925 14.6625 9.88955 14.6625 9.84583C14.6625 9.80211 14.6226 9.76666 14.5734 9.76666C14.5242 9.76666 14.4844 9.80211 14.4844 9.84583C14.4844 9.88955 14.5242 9.925 14.5734 9.925Z" fill="#85340A"/>
<path d="M14.3391 9.89585C14.5032 10.0083 14.6672 10 14.761 9.95001C14.8547 9.89585 14.8547 9.87918 14.836 9.87918C14.8172 9.87918 14.7985 9.89585 14.7235 9.93335C14.6438 9.96668 14.5313 9.96668 14.3391 9.89585Z" fill="#85340A"/>
</svg>
