<svg width="30" height="20" viewBox="0 0 30 20" fill="none" xmlns="http://www.w3.org/2000/svg">
<path fill-rule="evenodd" clip-rule="evenodd" d="M0 0H30V1.53906H0V0ZM0 3.07813H30V4.61719H0V3.07813ZM0 6.15234H30V7.69531H0V6.15234ZM0 9.23047H30V10.7695H0V9.23047ZM0 12.3086H30V13.8477H0V12.3086ZM0 15.3828H30V16.9219H0V15.3828ZM0 18.4609H30V20H0V18.4609Z" fill="#BD3D44"/>
<path fill-rule="evenodd" clip-rule="evenodd" d="M0 1.53906H30V3.07813H0V1.53906ZM0 4.61719H30V6.15234H0V4.61719ZM0 7.69141H30V9.23047H0V7.69141ZM0 10.7695H30V12.3086H0V10.7695ZM0 13.8477H30V15.3867H0V13.8477ZM0 16.9219H30V18.4609H0V16.9219Z" fill="white"/>
<path fill-rule="evenodd" clip-rule="evenodd" d="M0 0H11.9994V10.7695H0V0Z" fill="#192F5D"/>
<path fill-rule="evenodd" clip-rule="evenodd" d="M0.999203 0.460953L1.11022 0.886734H1.46179L1.17807 1.14845L1.286 1.57814L0.999203 1.31252L0.715486 1.57423L0.823422 1.14845L0.536621 0.886734H0.894351L0.999203 0.460953ZM3.00064 0.460953L3.10858 0.886734H3.46323L3.17642 1.14845L3.28436 1.57814L3.00064 1.31252L2.71384 1.57423L2.82178 1.14845L2.53806 0.886734H2.88962L3.00064 0.460953ZM4.999 0.460953L5.11002 0.886734H5.4585L5.17478 1.14845L5.28272 1.57814L4.99591 1.31252L4.7122 1.57423L4.82013 1.14845L4.53333 0.886734H4.88798L4.999 0.460953ZM7.00044 0.460953L7.10837 0.886734H7.46302L7.17622 1.14845L7.28724 1.57814L7.00044 1.31252L6.71364 1.57423L6.82466 1.14845L6.53786 0.886734H6.88942L7.00044 0.460953ZM8.99879 0.460953L9.10981 0.886734H9.46138L9.17766 1.14845L9.28559 1.57814L8.99879 1.31252L8.71508 1.57423L8.82301 1.14845L8.53929 0.886734H8.89086L8.99879 0.460953ZM11.0002 0.460953L11.1082 0.886734H11.4628L11.176 1.14845L11.287 1.57814L11.0002 1.31252L10.7134 1.57423L10.8245 1.14845L10.5377 0.886734H10.8923L11.0002 0.460953ZM2.00147 1.53908L2.1094 1.96486H2.46405L2.17725 2.22658L2.2821 2.65236L2.00455 2.39064L1.71775 2.65236L1.81952 2.22658L1.54197 1.96486H1.89353L2.00147 1.53908ZM3.99982 1.53908L4.11084 1.96486H4.4624L4.1756 2.22658L4.28662 2.65236L3.99982 2.39064L3.71302 2.65236L3.82404 2.22658L3.53724 1.96486H3.89188L3.99982 1.53908ZM6.00126 1.53908L6.1092 1.96486H6.46384L6.17704 2.22658L6.28498 2.65236L6.00126 2.39064L5.71446 2.65236L5.82239 2.22658L5.53868 1.96486H5.89024L6.00126 1.53908ZM7.99962 1.53908L8.11064 1.96486H8.4622L8.1754 2.22658L8.28642 2.65236L7.99962 2.39064L7.7159 2.65236L7.82383 2.22658L7.53703 1.96486H7.89476L7.99962 1.53908ZM10.0011 1.53908L10.109 1.96486H10.4636L10.1768 2.22658L10.2848 2.65236L10.0011 2.39064L9.71425 2.65236L9.82219 2.22658L9.53847 1.96486H9.89004L10.0011 1.53908ZM0.999203 2.6133L1.11022 3.04689H1.46179L1.17807 3.30861L1.286 3.73439L0.999203 3.46876L0.715486 3.73439L0.823422 3.3047L0.536621 3.04298H0.894351L0.999203 2.6133ZM3.00064 2.6133L3.10858 3.04298H3.46323L3.17642 3.3047L3.28436 3.73048L3.00064 3.46486L2.71384 3.73048L2.82178 3.3008L2.53806 3.03908H2.88962L3.00064 2.6133ZM4.999 2.6133L5.11002 3.04298H5.4585L5.17478 3.3047L5.28272 3.73048L4.99591 3.46486L4.7122 3.73048L4.82013 3.3008L4.53333 3.03908H4.88798L4.999 2.6133ZM7.00044 2.6133L7.10837 3.04298H7.46302L7.17622 3.3047L7.28724 3.73048L7.00044 3.46486L6.71364 3.73048L6.82466 3.3008L6.53786 3.03908H6.88942L7.00044 2.6133ZM8.99879 2.6133L9.10981 3.04298H9.46138L9.17766 3.3047L9.28559 3.73048L8.99879 3.46486L8.71508 3.73048L8.82301 3.3008L8.53929 3.03908H8.89086L8.99879 2.6133ZM11.0002 2.6133L11.1082 3.04298H11.4628L11.176 3.3047L11.287 3.73048L11.0002 3.46486L10.7134 3.73048L10.8245 3.3008L10.5377 3.03908H10.8923L11.0002 2.6133ZM2.00147 3.69142L2.1094 4.1172H2.46405L2.17725 4.37892L2.28518 4.80861L2.00147 4.54298L1.71466 4.8047L1.8226 4.37892L1.53888 4.1172H1.89045L2.00147 3.69142ZM3.99982 3.69142L4.11084 4.1172H4.4624L4.1756 4.37892L4.28662 4.80861L3.99982 4.54298L3.71302 4.8047L3.82404 4.37892L3.53724 4.1172H3.89188L3.99982 3.69142ZM6.00126 3.69142L6.1092 4.1172H6.46384L6.17704 4.37892L6.28498 4.80861L6.00126 4.54298L5.71446 4.8047L5.82239 4.37892L5.53868 4.1172H5.89024L6.00126 3.69142ZM7.99962 3.69142L8.11064 4.1172H8.4622L8.17848 4.37892L8.28642 4.80861L7.99962 4.54298L7.7159 4.8047L7.82383 4.37892L7.53703 4.1172H7.89476L7.99962 3.69142ZM10.0011 3.69142L10.109 4.1172H10.4636L10.1768 4.37892L10.2848 4.80861L10.0011 4.54298L9.71425 4.8047L9.82219 4.37892L9.53847 4.1172H9.89004L10.0011 3.69142ZM0.999203 4.76955L1.11022 5.19533H1.46179L1.17807 5.45705L1.286 5.88673L0.999203 5.62111L0.715486 5.88283L0.823422 5.45705L0.536621 5.19533H0.894351L0.999203 4.76955ZM3.00064 4.76955L3.10858 5.19533H3.46323L3.17642 5.45705L3.28436 5.88283L3.00064 5.62111L2.71384 5.88283L2.82178 5.45705L2.53806 5.19533H2.88962L3.00064 4.76955ZM4.999 4.76955L5.11002 5.19533H5.4585L5.17478 5.45705L5.28272 5.88673L4.99591 5.62111L4.7122 5.88283L4.82013 5.45705L4.53333 5.19533H4.88798L4.999 4.76955ZM7.00044 4.76955L7.10837 5.19533H7.46302L7.17622 5.45705L7.28724 5.88673L7.00044 5.62111L6.71364 5.88283L6.82466 5.45705L6.53786 5.19533H6.88942L7.00044 4.76955ZM8.99879 4.76955L9.10981 5.19533H9.46138L9.17766 5.45705L9.28559 5.88673L8.99879 5.62111L8.71508 5.88283L8.82301 5.45705L8.53929 5.19533H8.89086L8.99879 4.76955ZM11.0002 4.76955L11.1082 5.19533H11.4628L11.176 5.45705L11.287 5.88673L11.0002 5.62111L10.7134 5.88283L10.8245 5.45705L10.5377 5.19533H10.8923L11.0002 4.76955ZM2.00147 5.84767L2.1094 6.27345H2.46405L2.17725 6.53517L2.28518 6.96095L2.00147 6.69533L1.71466 6.96095L1.8226 6.53126L1.53888 6.26955H1.89045L2.00147 5.84767ZM3.99982 5.84767L4.11084 6.27345H4.4624L4.1756 6.53517L4.28662 6.96095L3.99982 6.69533L3.71302 6.96095L3.82404 6.53126L3.53724 6.26955H3.89188L3.99982 5.84767ZM6.00126 5.84767L6.1092 6.27345H6.46384L6.17704 6.53517L6.28498 6.96095L6.00126 6.69533L5.71446 6.96095L5.82239 6.53126L5.53868 6.26955H5.89024L6.00126 5.84767ZM7.99962 5.84767L8.11064 6.27345H8.4622L8.17848 6.53517L8.28642 6.96095L7.99962 6.69533L7.7159 6.96095L7.82383 6.53126L7.53703 6.26955H7.89476L7.99962 5.84767ZM10.0011 5.84767L10.109 6.27345H10.4636L10.1768 6.53517L10.2848 6.96095L10.0011 6.69533L9.71425 6.96095L9.82219 6.53126L9.53847 6.26955H9.89004L10.0011 5.84767ZM0.999203 6.92189L1.11022 7.35158H1.46179L1.17807 7.6133L1.286 8.03517L0.999203 7.77345L0.715486 8.03517L0.823422 7.60939L0.536621 7.34767H0.894351L0.999203 6.92189ZM3.00064 6.92189L3.10858 7.35158H3.46323L3.17642 7.6133L3.28744 8.03517L3.00064 7.77345L2.71384 8.03517L2.82486 7.60939L2.53806 7.34767H2.88962L3.00064 6.92189ZM4.999 6.92189L5.11002 7.35158H5.4585L5.17478 7.6133L5.28272 8.03517L4.99591 7.77345L4.7122 8.03517L4.82013 7.60939L4.53333 7.34767H4.88798L4.999 6.92189ZM7.00044 6.92189L7.10837 7.35158H7.46302L7.17622 7.6133L7.28724 8.03517L7.00044 7.77345L6.71364 8.03517L6.82466 7.60939L6.53786 7.34767H6.88942L7.00044 6.92189ZM8.99879 6.92189L9.10981 7.35158H9.46138L9.17766 7.6133L9.28559 8.03517L8.99879 7.77345L8.71508 8.03517L8.82301 7.60939L8.53929 7.34767H8.89086L8.99879 6.92189ZM11.0002 6.92189L11.1082 7.35158H11.4628L11.176 7.6133L11.287 8.03517L11.0002 7.77345L10.7134 8.03517L10.8245 7.60939L10.5377 7.34767H10.8923L11.0002 6.92189ZM2.00147 8.00001L2.1094 8.4258H2.46405L2.17725 8.68751L2.28518 9.1172L2.00147 8.85158L1.71466 9.1133L1.8226 8.68751L1.53888 8.4258H1.89045L2.00147 8.00001ZM3.99982 8.00001L4.11084 8.4258H4.4624L4.1756 8.68751L4.28662 9.1172L3.99982 8.85158L3.71302 9.1133L3.82404 8.68751L3.53724 8.4258H3.89188L3.99982 8.00001ZM6.00126 8.00001L6.1092 8.4258H6.46384L6.17704 8.68751L6.28498 9.1172L6.00126 8.85158L5.71446 9.1133L5.82239 8.68751L5.53868 8.4258H5.89024L6.00126 8.00001ZM7.99962 8.00001L8.11064 8.4258H8.4622L8.17848 8.68751L8.28642 9.1172L7.99962 8.85158L7.7159 9.1133L7.82383 8.68751L7.53703 8.4258H7.89476L7.99962 8.00001ZM10.0011 8.00001L10.109 8.4258H10.4636L10.1768 8.68751L10.2848 9.1172L10.0011 8.85158L9.71425 9.1133L9.82219 8.68751L9.53847 8.4258H9.89004L10.0011 8.00001ZM0.999203 9.07814L1.11022 9.50392H1.46179L1.17807 9.76564L1.286 10.1914L0.999203 9.9297L0.715486 10.1914L0.823422 9.76173L0.536621 9.50001H0.894351L0.999203 9.07814ZM3.00064 9.07814L3.10858 9.50392H3.46323L3.17642 9.76564L3.28744 10.1914L3.00064 9.9297L2.71384 10.1914L2.82486 9.76173L2.53806 9.50001H2.88962L3.00064 9.07814ZM4.999 9.07814L5.11002 9.50392H5.4585L5.18095 9.76564L5.28888 10.1914L5.00208 9.9297L4.71837 10.1914L4.8263 9.76173L4.5395 9.50001H4.89415L4.999 9.07814ZM7.00044 9.07814L7.10837 9.50392H7.46302L7.17622 9.76564L7.28724 10.1914L7.00044 9.9297L6.71364 10.1914L6.82466 9.76173L6.53786 9.50001H6.88942L7.00044 9.07814ZM8.99879 9.07814L9.10981 9.50392H9.46138L9.17766 9.76564L9.28559 10.1914L8.99879 9.9297L8.71508 10.1914L8.82301 9.76173L8.53929 9.50001H8.89086L8.99879 9.07814ZM11.0002 9.07814L11.1082 9.50392H11.4628L11.176 9.76564L11.287 10.1914L11.0002 9.9297L10.7134 10.1914L10.8245 9.76173L10.5377 9.50001H10.8923L11.0002 9.07814Z" fill="white"/>
</svg>
