<svg width="30" height="20" viewBox="0 0 30 20" fill="none" xmlns="http://www.w3.org/2000/svg">
<path d="M7.49902 0H22.5011V20H7.49902V0Z" fill="white"/>
<path d="M0 0H7.49897V20H0V0ZM22.501 0H30V20H22.5052L22.501 0ZM9.74741 9.66406L9.15942 9.85156L11.8716 12.0977C12.0787 12.6719 11.8012 12.8398 11.6232 13.1445L14.5631 12.793L14.4928 15.5859L15.1056 15.5703L14.9689 12.7969L17.9172 13.1289C17.735 12.7656 17.5735 12.5742 17.7391 11.9961L20.4472 9.86719L19.9752 9.70312C19.5859 9.42187 20.1408 8.34766 20.2236 7.66797C20.2236 7.66797 18.646 8.17969 18.5424 7.91016L18.1366 7.17969L16.6998 8.67188C16.5424 8.70703 16.4762 8.64844 16.4389 8.52344L17.1014 5.40625L16.0497 5.96484C15.9627 6.00391 15.8758 5.97266 15.8178 5.875L14.8033 3.96094L13.7598 5.94922C13.6812 6.01953 13.6025 6.02734 13.5362 5.98047L12.5342 5.44922L13.1387 8.53906C13.089 8.66406 12.9731 8.69531 12.8406 8.62891L11.4617 7.15625C11.2836 7.42969 11.1636 7.87109 10.9234 7.97266C10.6874 8.06641 9.8882 7.78516 9.35404 7.67578C9.53623 8.29687 10.1077 9.32813 9.74741 9.66797V9.66406Z" fill="#D52B1E"/>
</svg>
