<svg width="30" height="20" viewBox="0 0 30 20" fill="none" xmlns="http://www.w3.org/2000/svg">
<path d="M0 0H30V20H0V0Z" fill="#DE2910"/>
<path d="M3.59998 7.4L5.62496 2L7.64993 7.4L2.25 4.1H8.99992L3.59998 7.4Z" fill="#FFDE00"/>
<path d="M12.3829 2.10349L10.299 2.514L11.689 1.07414L11.5527 3.012L10.3962 1.29641L12.3829 2.10349Z" fill="#FFDE00"/>
<path d="M14.4862 4.47281L12.3862 4.13274L14.2957 3.28481L13.3245 5.02399L13.0071 3.04399L14.4862 4.47281Z" fill="#FFDE00"/>
<path d="M14.1798 7.79685L12.4185 6.72504L14.551 6.64311L12.8663 7.87897L13.4849 5.95606L14.1798 7.79685Z" fill="#FFDE00"/>
<path d="M11.5307 9.96836L10.3718 8.37502L12.3744 9.03158L10.2835 9.59315L11.6896 8.03185L11.5307 9.96836Z" fill="#FFDE00"/>
</svg>
