<svg width="30" height="20" viewBox="0 0 30 20" fill="none" xmlns="http://www.w3.org/2000/svg">
<path fill-rule="evenodd" clip-rule="evenodd" d="M0 0H30V20H0V0Z" fill="#229E45"/>
<path fill-rule="evenodd" clip-rule="evenodd" d="M15.0656 18.1667L29.1984 10.0125L14.9812 1.83333L0.801514 10.0292L15.0656 18.1667Z" fill="#F8E509"/>
<path fill-rule="evenodd" clip-rule="evenodd" d="M21.225 10C21.225 12.9292 18.5484 15.3042 15.2438 15.3042C14.0628 15.3025 12.909 14.9897 11.928 14.4052C10.9471 13.8207 10.1831 12.9909 9.7327 12.0205C9.28228 11.0502 9.16563 9.98287 9.39749 8.95359C9.62936 7.92431 10.1993 6.97925 11.0353 6.23786C11.8714 5.49648 12.9359 4.99206 14.0944 4.78839C15.2529 4.58471 16.4533 4.69091 17.5439 5.09357C18.6345 5.49623 19.5663 6.17726 20.2215 7.05058C20.8767 7.92389 21.2259 8.95028 21.225 10Z" fill="#2B49A3"/>
<path fill-rule="evenodd" clip-rule="evenodd" d="M13.28 13.1792L13.0925 13.0833L12.905 13.1667L12.9472 12.9792L12.7972 12.8375L13.0081 12.8167L13.1112 12.65L13.2003 12.825L13.4065 12.8583L13.2519 12.9833M17.2831 14.0792L17.1003 13.9833L16.9128 14.0667L16.9503 13.8792L16.805 13.7417L17.0159 13.7208L17.1144 13.55L17.2081 13.725L17.4144 13.7583L17.255 13.8875M15.5581 12.6375L15.3987 12.5542L15.2347 12.6292L15.2722 12.4667L15.1409 12.3458L15.3284 12.3292L15.4128 12.1792L15.4878 12.3333L15.6706 12.3625L15.53 12.475M19.6081 12.1208L19.4487 12.0375L19.2847 12.1125L19.3222 11.95L19.1956 11.8333L19.3784 11.8167L19.4628 11.6708L19.5378 11.8208L19.7159 11.85L19.58 11.9583M15.4878 11.0417L15.3003 10.95L15.1128 11.0333L15.1503 10.8417L15.005 10.7042L15.2159 10.6833L15.3144 10.5125L15.4081 10.6875L15.6144 10.7208L15.455 10.8542M10.5519 9.39583L10.3644 9.30417L10.1769 9.3875L10.2237 9.19583L10.069 9.05833L10.2847 9.0375L10.3784 8.86667L10.4722 9.04167L10.6784 9.075L10.5237 9.20417M11.1472 11.5875L10.9597 11.4917L10.7722 11.575L10.8144 11.3875L10.6644 11.25L10.8753 11.225L10.9737 11.0583L11.0675 11.2333L11.2737 11.2667L11.119 11.3958M17.3065 8.59167L17.1378 8.50833L16.969 8.58333L17.0065 8.41667L16.8753 8.29167L17.0628 8.27083L17.1519 8.12083L17.2315 8.27917L17.419 8.30833L17.2784 8.42083M16.9644 10.0167L16.8378 9.95L16.7019 10.0083L16.73 9.875L16.6269 9.77917L16.7769 9.7625L16.8472 9.64583L16.9081 9.77083L17.0487 9.79167L16.9456 9.88333M10.28 11.9833L10.1534 11.9208L10.0269 11.975L10.055 11.85L9.95654 11.7583L10.0972 11.7417L10.1628 11.6292L10.2237 11.7458L10.3644 11.7708L10.2565 11.8542M19.6409 12.4917L19.5378 12.4458L19.4347 12.4875L19.4581 12.3917L19.3784 12.325L19.4909 12.3125L19.5472 12.2292L19.594 12.3125L19.7112 12.3333L19.6222 12.3958" fill="#FFFFEF"/>
<path fill-rule="evenodd" clip-rule="evenodd" d="M10.28 11.9833L10.1534 11.9208L10.0269 11.975L10.055 11.85L9.95654 11.7583L10.0972 11.7417L10.1628 11.6292L10.2237 11.7458L10.3644 11.7708L10.2565 11.8542" fill="#FFFFEF"/>
<path fill-rule="evenodd" clip-rule="evenodd" d="M10.28 11.9833L10.1534 11.9208L10.0269 11.975L10.055 11.85L9.95654 11.7583L10.0972 11.7417L10.1628 11.6292L10.2237 11.7458L10.3644 11.7708L10.2565 11.8542M12.2394 11.9792L12.1175 11.9208L11.9909 11.975L12.019 11.85L11.9206 11.7583L12.0612 11.7417L12.1269 11.6292L12.1878 11.7458L12.3284 11.7667L12.2206 11.8542M11.9956 12.5625L11.8737 12.5L11.7472 12.5583L11.7753 12.4333L11.6769 12.3375L11.8175 12.3208L11.8831 12.2083L11.944 12.325L12.0847 12.35L11.9769 12.4333M16.0737 11.5083L15.9519 11.4417L15.8206 11.5L15.8487 11.375L15.755 11.2792L15.8956 11.2667L15.9612 11.1542L16.0175 11.2708L16.1581 11.2917L16.055 11.3792M14.8784 11.5042L14.7519 11.4417L14.6253 11.5L14.6534 11.375L14.5597 11.2792L14.7003 11.2667L14.7659 11.15L14.8222 11.2708L14.9628 11.2917L14.8597 11.3792M11.6347 11.1375L11.555 11.0958L11.4753 11.1292L11.494 11.05L11.4331 10.9917L11.5222 10.9833L11.5597 10.9125L11.5972 10.9875L11.6862 11L11.6206 11.0542M19.4862 12.9458L19.3644 12.8833L19.2378 12.9417L19.2659 12.8167L19.1675 12.7208L19.3081 12.7042L19.3737 12.5917L19.4347 12.7083L19.5753 12.7333L19.4675 12.8167M18.4925 13.0667L18.3894 13.0083L18.2815 13.0583L18.305 12.95L18.2253 12.875L18.3425 12.8625L18.3987 12.7667L18.4456 12.8667L18.5628 12.8833L18.4737 12.9583M18.9612 13.0542L18.8675 13.0042L18.769 13.0458L18.7878 12.95L18.7128 12.8792L18.8206 12.8667L18.8722 12.7833L18.919 12.8667L19.0269 12.8875L18.9472 12.9542M20.3112 12.0042L20.2175 11.9625L20.1237 12.0042L20.1472 11.9083L20.0722 11.8375L20.18 11.825L20.2269 11.7417L20.2737 11.8292L20.3722 11.8458L20.2972 11.9125M18.4784 13.6542L18.3612 13.5958L18.2347 13.6458L18.2628 13.5292L18.169 13.4458L18.3097 13.4333L18.3706 13.3292L18.4269 13.4375L18.5675 13.4583L18.4597 13.5375M18.4878 14.1292L18.3753 14.0708L18.2628 14.125L18.2909 14.0083L18.2019 13.925L18.3284 13.9083L18.3847 13.8042L18.4362 13.9125L18.5628 13.9333L18.469 14.0167M17.5784 13.0542L17.4894 13.0042L17.3956 13.0458L17.4144 12.9542L17.344 12.8833L17.4472 12.875L17.494 12.7917L17.5409 12.875L17.644 12.8917L17.569 12.9583M16.7347 13.0542L16.6409 13.0042L16.5472 13.0458L16.5706 12.9542L16.4956 12.8833L16.6034 12.875L16.6503 12.7917L16.6972 12.875L16.7956 12.8917L16.7206 12.9583M15.2956 11.9333L15.2019 11.8875L15.1081 11.9292L15.1315 11.8333L15.0565 11.7667L15.1597 11.7542L15.2065 11.6708L15.2534 11.7542L15.3565 11.775L15.2815 11.8375M15.455 14.2125L15.38 14.175L15.2956 14.2125L15.3144 14.1292L15.2534 14.0708L15.3425 14.0625L15.3847 13.9917L15.4222 14.0667L15.5112 14.0792L15.4456 14.1333M13.28 10.525L13.0925 10.4292L12.905 10.5125L12.9472 10.325L12.7972 10.1875L13.0081 10.1625L13.1112 9.99583L13.2003 10.1708L13.4065 10.2042L13.2519 10.3333" fill="#FFFFEF"/>
<path fill-rule="evenodd" clip-rule="evenodd" d="M20.8312 11.9083C20.9474 11.6405 21.0383 11.3645 21.1031 11.0833C17.925 8.60416 14.3859 7.33333 9.91406 7.59583C9.75187 7.87479 9.61851 8.16627 9.51562 8.46666C14.8125 8.01666 18.7031 10.1 20.8312 11.9083Z" fill="white"/>
<path d="M19.4064 10.5167L19.5142 10.5708C19.4981 10.5991 19.4932 10.6314 19.5001 10.6625C19.5111 10.6927 19.5346 10.718 19.5658 10.7333C19.5986 10.7542 19.6314 10.7667 19.6595 10.7625C19.6876 10.7625 19.7064 10.75 19.7205 10.7333C19.7286 10.7223 19.732 10.7089 19.7298 10.6958C19.726 10.6804 19.7179 10.6661 19.7064 10.6542C19.697 10.6417 19.6736 10.6125 19.6361 10.5792C19.5975 10.5438 19.5687 10.501 19.5517 10.4542C19.54 10.4187 19.543 10.3807 19.5603 10.347C19.5775 10.3134 19.6077 10.2863 19.6455 10.2708C19.6796 10.2582 19.7172 10.2553 19.7533 10.2625C19.7973 10.2715 19.8388 10.2885 19.8751 10.3125C19.9408 10.3542 19.983 10.3958 19.997 10.4458C20.0035 10.4692 20.0043 10.4936 19.9995 10.5173C19.9947 10.541 19.9842 10.5635 19.9689 10.5833L19.8564 10.5208C19.8705 10.4958 19.8751 10.4708 19.8658 10.45C19.8611 10.4292 19.8423 10.4083 19.8095 10.3917C19.7854 10.3745 19.756 10.3643 19.7251 10.3625C19.7166 10.3622 19.7082 10.364 19.7008 10.3677C19.6934 10.3714 19.6872 10.3768 19.683 10.3833C19.6736 10.3958 19.6736 10.4083 19.6783 10.425C19.683 10.4417 19.7064 10.475 19.7533 10.5167C19.8001 10.5583 19.8283 10.5958 19.847 10.6208C19.8638 10.6481 19.8713 10.6791 19.8688 10.7102C19.8663 10.7412 19.8539 10.7709 19.833 10.7958C19.811 10.8242 19.78 10.8459 19.7439 10.8583C19.7087 10.8727 19.6694 10.8771 19.6314 10.8708C19.5892 10.8625 19.547 10.8458 19.5001 10.8167C19.4298 10.775 19.3876 10.7292 19.3736 10.6792C19.3583 10.6225 19.3684 10.5627 19.4017 10.5125L19.4064 10.5167ZM18.8626 10.2L18.9798 10.2542C18.9653 10.2829 18.962 10.3152 18.9705 10.3458C18.9824 10.3744 19.0058 10.3981 19.0361 10.4125C19.0736 10.4333 19.1017 10.4417 19.1298 10.4375C19.158 10.4375 19.1767 10.425 19.1908 10.4042C19.1979 10.3943 19.2012 10.3826 19.2001 10.3708C19.2001 10.3583 19.1908 10.3417 19.1767 10.3292C19.1527 10.3034 19.1277 10.2784 19.1017 10.2542C19.0501 10.2083 19.0173 10.1708 19.008 10.1375C19.0003 10.1161 18.998 10.0934 19.0012 10.0711C19.0045 10.0488 19.0132 10.0273 19.0267 10.0083C19.0445 9.98262 19.0707 9.96229 19.1017 9.95C19.1339 9.9368 19.1698 9.93245 19.2048 9.9375C19.2482 9.94399 19.2896 9.95816 19.3267 9.97917C19.397 10.0208 19.4392 10.0625 19.4533 10.1083C19.4618 10.1318 19.4646 10.1565 19.4613 10.181C19.4581 10.2054 19.4489 10.229 19.4345 10.25L19.3173 10.1917C19.3314 10.1625 19.3361 10.1417 19.3267 10.1208C19.3173 10.1 19.2986 10.0792 19.2658 10.0625C19.2398 10.046 19.2086 10.0372 19.1767 10.0375C19.169 10.038 19.1616 10.0401 19.155 10.0437C19.1485 10.0474 19.143 10.0524 19.1392 10.0583C19.1298 10.0708 19.1298 10.0833 19.1345 10.1C19.1392 10.1167 19.1673 10.15 19.2142 10.1917C19.2611 10.2333 19.2939 10.2667 19.308 10.2917C19.3267 10.3178 19.3367 10.3482 19.3367 10.3792C19.3367 10.4102 19.3267 10.4405 19.308 10.4667C19.2878 10.4957 19.2584 10.5189 19.2236 10.5333C19.1884 10.5477 19.1491 10.5521 19.1111 10.5458C19.0628 10.5386 19.0167 10.523 18.9751 10.5C18.9146 10.4713 18.8679 10.4239 18.8439 10.3667C18.8258 10.311 18.8325 10.2513 18.8626 10.2ZM18.197 10.0417L18.5392 9.54167L18.9517 9.77083L18.8955 9.85417L18.5955 9.6875L18.5205 9.8L18.8017 9.95417L18.7408 10.0375L18.4595 9.88333L18.3658 10.0208L18.6798 10.1875L18.6236 10.2708L18.2017 10.0417H18.197ZM17.2267 9.33333L17.2783 9.25L17.5314 9.3625L17.4142 9.57083C17.3767 9.57917 17.3298 9.58333 17.2736 9.57917C17.2196 9.57387 17.1671 9.55975 17.1189 9.5375C17.0622 9.51294 17.0137 9.47558 16.9783 9.42917C16.946 9.38604 16.9297 9.33509 16.9314 9.28333C16.9338 9.22946 16.9498 9.17677 16.9783 9.12917C17.0064 9.07906 17.0484 9.03607 17.1001 9.00417C17.1497 8.97371 17.2087 8.9577 17.2689 8.95833C17.3158 8.95833 17.3626 8.97083 17.4189 9C17.4939 9.02917 17.5408 9.07083 17.5642 9.11667C17.5886 9.16217 17.5936 9.21398 17.5783 9.2625L17.4517 9.22917C17.4595 9.20126 17.4561 9.17183 17.4423 9.14583C17.4283 9.12083 17.4048 9.10417 17.3673 9.0875C17.3455 9.07641 17.3212 9.06956 17.2962 9.06741C17.2711 9.06525 17.2459 9.06784 17.222 9.075C17.1751 9.0875 17.133 9.125 17.1001 9.18333C17.0673 9.24167 17.0533 9.29583 17.0673 9.34167C17.0738 9.3634 17.0856 9.38362 17.1018 9.40089C17.1179 9.41817 17.1382 9.43208 17.1611 9.44167C17.1845 9.45417 17.2126 9.4625 17.2408 9.4625C17.2687 9.46627 17.2972 9.46627 17.3251 9.4625L17.3626 9.39583L17.2267 9.33333ZM12.9986 8.40417L13.0923 7.82083L13.2892 7.85L13.3408 8.25833L13.5236 7.88333L13.7205 7.90833L13.6267 8.48333L13.5001 8.46667L13.5798 8.0125L13.3736 8.45L13.247 8.43333L13.1955 7.9625L13.1205 8.42083L12.9986 8.40417ZM12.3376 8.33333L12.3986 7.75L12.8814 7.79167L12.872 7.89167L12.5205 7.8625L12.5064 7.9875L12.8345 8.01667L12.8205 8.11667L12.4923 8.0875L12.4783 8.24583L12.8439 8.275L12.8345 8.375L12.3376 8.33333Z" fill="#309E3A"/>
<path d="M10.1486 7.97084C10.1486 7.90834 10.1626 7.8625 10.1814 7.82084C10.1978 7.7912 10.22 7.7644 10.247 7.74167C10.2711 7.72012 10.2998 7.70311 10.3314 7.69167C10.3783 7.67917 10.4251 7.67084 10.472 7.67084C10.5705 7.67084 10.6455 7.70417 10.7064 7.75417C10.7354 7.78602 10.757 7.82269 10.7698 7.86204C10.7827 7.90139 10.7866 7.94263 10.7814 7.98334C10.7814 8.075 10.7486 8.15 10.6876 8.20417C10.6563 8.2299 10.6193 8.2495 10.5789 8.2617C10.5385 8.2739 10.4957 8.27843 10.4533 8.275C10.4114 8.27538 10.3698 8.26819 10.3311 8.25386C10.2925 8.23954 10.2575 8.21838 10.2283 8.19167C10.1699 8.1303 10.1413 8.05091 10.1486 7.97084Z" fill="#309E3A"/>
<path d="M10.2844 7.97084C10.2844 8.03334 10.2985 8.08334 10.3313 8.12084C10.3641 8.15417 10.4063 8.175 10.4625 8.175C10.4869 8.17652 10.5113 8.17319 10.534 8.16526C10.5567 8.15733 10.5771 8.145 10.5938 8.12917C10.6266 8.09584 10.6407 8.04584 10.6454 7.975C10.6454 7.90834 10.636 7.85834 10.5985 7.825C10.5832 7.80821 10.5639 7.79464 10.5421 7.78527C10.5202 7.7759 10.4962 7.77097 10.4719 7.77084C10.4473 7.77014 10.4227 7.77425 10.4001 7.78289C10.3774 7.79153 10.3571 7.80448 10.3407 7.82084C10.3032 7.85417 10.2891 7.90417 10.2844 7.97084Z" fill="#F7FFFF"/>
<path d="M10.9219 8.27084L10.9312 7.68751H11.2125C11.2828 7.68751 11.3297 7.69584 11.3625 7.70834C11.3953 7.71667 11.4187 7.73751 11.4375 7.76251C11.4563 7.78751 11.4656 7.82084 11.4656 7.85834C11.466 7.89842 11.4492 7.93714 11.4188 7.96667C11.3841 7.99553 11.3395 8.01314 11.2922 8.01667L11.3625 8.06667C11.3812 8.08334 11.4047 8.11667 11.4328 8.16251L11.5125 8.27917H11.3531L11.2594 8.14584L11.1938 8.06251C11.1824 8.05104 11.1678 8.04242 11.1516 8.03751C11.1302 8.03198 11.1081 8.02917 11.0859 8.02917H11.0578V8.27084H10.9219Z" fill="#309E3A"/>
<path d="M11.0625 7.93752H11.1563C11.2219 7.93752 11.2641 7.93752 11.2781 7.92919C11.2922 7.92919 11.3062 7.91669 11.3156 7.90836C11.325 7.90002 11.3297 7.87919 11.3297 7.86669C11.3297 7.84169 11.325 7.82502 11.3109 7.81669C11.3016 7.80419 11.2828 7.79585 11.2641 7.79169H11.1703L11.0625 7.78752V7.93335V7.93752Z" fill="white"/>
<path d="M11.6717 7.71667L11.9155 7.72917C11.967 7.72917 12.0092 7.73334 12.0374 7.74168C12.0738 7.75344 12.1062 7.77356 12.1311 7.80001C12.1581 7.82914 12.1773 7.86333 12.1874 7.90001C12.2014 7.93751 12.2061 7.98334 12.2014 8.03751C12.2014 8.08004 12.1935 8.12227 12.178 8.16251C12.1592 8.20417 12.1311 8.23751 12.0983 8.26251C12.071 8.28251 12.0389 8.29676 12.0045 8.30418C11.9764 8.31251 11.9342 8.31251 11.8874 8.31251L11.6389 8.30001L11.6717 7.71667Z" fill="#309E3A"/>
<path d="M11.7986 7.82083L11.7751 8.20833H11.9533C11.9767 8.20833 11.9955 8.2 12.0095 8.1875C12.0236 8.175 12.0376 8.15833 12.047 8.13333C12.0564 8.10833 12.0658 8.07083 12.0658 8.025L12.0611 7.92083C12.0544 7.89886 12.0415 7.87878 12.0236 7.8625C12.008 7.84858 11.9886 7.83853 11.9673 7.83333C11.9319 7.82632 11.8958 7.82213 11.8595 7.82083H11.7986Z" fill="white"/>
<path d="M14.8877 8.75833L15.0424 8.19167L15.2486 8.23333L15.3986 8.275C15.4314 8.29167 15.4596 8.31667 15.4736 8.35417C15.4924 8.3875 15.4924 8.425 15.483 8.47083C15.4736 8.50417 15.4596 8.53333 15.4361 8.55417C15.4189 8.57246 15.3974 8.58717 15.3731 8.59725C15.3488 8.60733 15.3223 8.61254 15.2955 8.6125C15.2627 8.6125 15.2158 8.60417 15.1549 8.59167L15.0752 8.57083L15.0189 8.7875L14.8877 8.75833Z" fill="#309E3A"/>
<path d="M15.1405 8.31667L15.103 8.475L15.1733 8.49167C15.2202 8.5 15.2577 8.50833 15.2765 8.50417C15.2947 8.50192 15.3117 8.4947 15.3251 8.48351C15.3386 8.47231 15.3478 8.4577 15.3515 8.44167C15.3515 8.42083 15.3515 8.40417 15.3421 8.3875C15.3318 8.37056 15.3152 8.35731 15.2952 8.35L15.2062 8.32917L15.1452 8.31667H15.1405Z" fill="white"/>
<path d="M15.4968 8.92084L15.7171 8.37084L15.975 8.45418C16.0453 8.47501 16.0875 8.49584 16.1156 8.51251C16.139 8.53334 16.1578 8.55418 16.1625 8.58751C16.1671 8.62084 16.1718 8.65001 16.1625 8.68334C16.1437 8.72501 16.1156 8.75418 16.0781 8.77501C16.0406 8.79168 15.9937 8.79584 15.9375 8.78751C15.9562 8.80834 15.975 8.82918 15.9843 8.85418L16.0218 8.96668L16.05 9.09584L15.9046 9.05001L15.8578 8.90001C15.8492 8.86609 15.8383 8.83268 15.825 8.80001C15.8187 8.78705 15.8091 8.77561 15.7968 8.76668C15.7875 8.75418 15.7687 8.74584 15.7359 8.73751L15.7125 8.72918L15.6187 8.96251L15.4968 8.92084Z" fill="#309E3A"/>
<path d="M15.75 8.64166L15.8391 8.67082C15.9 8.69166 15.9375 8.69999 15.9563 8.69999C15.9704 8.69999 15.9844 8.69999 15.9985 8.68749C16.0125 8.67916 16.0219 8.66666 16.0266 8.64999C16.036 8.63332 16.036 8.61666 16.0266 8.59999C16.0197 8.58384 16.0063 8.57051 15.9891 8.56249L15.8954 8.53332L15.8016 8.50416L15.7454 8.64166H15.75Z" fill="white"/>
<path d="M16.2656 8.90001C16.2817 8.85122 16.3088 8.80586 16.3453 8.76668C16.369 8.74154 16.3976 8.72037 16.4297 8.70418C16.4587 8.68959 16.4905 8.67971 16.5234 8.67501C16.5703 8.67501 16.6172 8.67501 16.6687 8.69168C16.7106 8.70089 16.7499 8.71792 16.7838 8.74162C16.8177 8.76533 16.8456 8.79517 16.8656 8.82918C16.9031 8.89584 16.9031 8.97501 16.875 9.06668C16.8518 9.14543 16.7945 9.21283 16.7156 9.25418C16.6453 9.29168 16.5609 9.29584 16.4719 9.27084C16.4301 9.26139 16.391 9.24427 16.3571 9.22059C16.3232 9.19691 16.2952 9.16719 16.275 9.13334C16.2562 9.09692 16.2457 9.05755 16.2441 9.01751C16.2425 8.97747 16.2498 8.93754 16.2656 8.90001Z" fill="#309E3A"/>
<path d="M16.3967 8.93336C16.378 8.99586 16.3733 9.05003 16.3967 9.0917C16.4202 9.13336 16.453 9.15836 16.5045 9.17503C16.5514 9.18753 16.5983 9.18336 16.6452 9.15836C16.692 9.13753 16.7202 9.0917 16.7436 9.02503C16.767 8.96253 16.767 8.91253 16.7436 8.87086C16.7344 8.8511 16.7203 8.83338 16.7025 8.81898C16.6847 8.80458 16.6635 8.79384 16.6405 8.78753C16.6174 8.78045 16.5929 8.77791 16.5686 8.78006C16.5443 8.78222 16.5209 8.78903 16.4999 8.80003C16.453 8.82503 16.4202 8.8667 16.3967 8.93336Z" fill="white"/>
<path d="M17.5452 9.7125L17.8452 9.19583L18.0936 9.30833C18.1404 9.3283 18.1832 9.35506 18.2202 9.3875C18.2436 9.40833 18.2577 9.43333 18.2577 9.46666C18.2577 9.5 18.2577 9.52916 18.2389 9.55833C18.2209 9.5958 18.1873 9.62564 18.1452 9.64166C18.0983 9.65 18.0514 9.65 17.9999 9.63333C18.0186 9.65833 18.028 9.68333 18.0374 9.70416C18.0467 9.72916 18.0514 9.76666 18.0561 9.82083L18.0655 9.95416L17.9249 9.89166L17.9061 9.7375C17.9039 9.70255 17.8992 9.66776 17.892 9.63333C17.8888 9.61774 17.8807 9.60329 17.8686 9.59166L17.8124 9.5625L17.7889 9.55L17.6624 9.76666L17.5452 9.7125Z" fill="#309E3A"/>
<path d="M17.8359 9.46666L17.925 9.50833C17.9812 9.53333 18.0188 9.54999 18.0328 9.54999C18.0469 9.54999 18.0656 9.54999 18.0797 9.54166C18.0938 9.53749 18.1031 9.52499 18.1125 9.50833C18.1219 9.49166 18.1266 9.47499 18.1219 9.45833C18.1161 9.44174 18.1046 9.42717 18.0891 9.41666C18.0616 9.40169 18.0335 9.38779 18.0047 9.37499L17.9109 9.33333L17.8359 9.46666Z" fill="white"/>
<path d="M19.9734 10.7792C20.0038 10.7363 20.0436 10.6995 20.0906 10.6708C20.1221 10.6529 20.1571 10.6402 20.1937 10.6333C20.2278 10.6272 20.2628 10.6272 20.2969 10.6333C20.3437 10.6417 20.3859 10.6583 20.4281 10.6833C20.4646 10.7035 20.4959 10.7303 20.5201 10.7618C20.5444 10.7934 20.5609 10.8291 20.5687 10.8667C20.5828 10.9375 20.5594 11.0167 20.5031 11.0958C20.4561 11.1647 20.3802 11.2141 20.2922 11.2333C20.2502 11.2414 20.2068 11.2415 20.1648 11.2336C20.1228 11.2257 20.0831 11.21 20.0484 11.1875C20.0119 11.1673 19.9806 11.1406 19.9564 11.109C19.9322 11.0774 19.9156 11.0417 19.9078 11.0042C19.8937 10.9292 19.9172 10.8542 19.9734 10.7792Z" fill="#309E3A"/>
<path d="M20.0904 10.8458C20.0436 10.9 20.0295 10.95 20.0389 10.9958C20.0423 11.0169 20.0508 11.0372 20.0637 11.0551C20.0767 11.0731 20.0938 11.0884 20.1139 11.1C20.1607 11.1292 20.2076 11.1375 20.2545 11.125C20.3014 11.1125 20.3482 11.0833 20.3904 11.025C20.4326 10.9667 20.4514 10.9167 20.442 10.875C20.4373 10.8333 20.4092 10.7958 20.367 10.7667C20.3248 10.7375 20.2732 10.7333 20.2264 10.7458C20.1795 10.7542 20.1326 10.7875 20.0857 10.8458H20.0904Z" fill="white"/>
<path d="M14.147 8.52083L14.2548 8.1125L14.5923 8.18333L14.5782 8.25L14.3298 8.2L14.3063 8.29166L14.536 8.3375L14.5173 8.40833L14.2876 8.35833L14.2595 8.47083L14.5173 8.525L14.4985 8.59166L14.147 8.52083Z" fill="#309E3A"/>
</svg>
