<svg width="56" height="31" viewBox="0 0 56 31" fill="none" xmlns="http://www.w3.org/2000/svg">
<path d="M24.1512 15.0587C23.3965 15.0587 22.748 14.894 22.2056 14.5646C21.6632 14.2352 21.2482 13.7788 20.9605 13.1953C20.6727 12.6071 20.5289 11.9318 20.5289 11.1695V11.0212C20.5289 10.2542 20.6727 9.5813 20.9605 9.00249C21.2482 8.41428 21.6609 7.95547 22.1985 7.62607C22.7409 7.29667 23.3871 7.13197 24.137 7.13197C24.9011 7.13197 25.5496 7.29667 26.0826 7.62607C26.6203 7.95547 27.0329 8.41428 27.3207 9.00249C27.6084 9.586 27.7522 10.2589 27.7522 11.0212V11.1695C27.7522 11.9365 27.6084 12.6094 27.3207 13.1882C27.0329 13.7717 26.6203 14.2305 26.0826 14.5646C25.5449 14.894 24.9011 15.0587 24.1512 15.0587ZM24.1512 13.4776C24.5049 13.4776 24.7973 13.3812 25.0284 13.1882C25.2548 12.9953 25.4223 12.7271 25.5307 12.3835C25.6392 12.0353 25.6935 11.6306 25.6935 11.1695V11.0212C25.6935 10.5742 25.6392 10.1742 25.5307 9.82129C25.4223 9.47306 25.2525 9.20249 25.0214 9.00955C24.795 8.81662 24.5002 8.72015 24.137 8.72015C23.788 8.72015 23.4956 8.81662 23.2597 9.00955C23.0286 9.20719 22.8588 9.48012 22.7504 9.82834C22.6466 10.1719 22.5947 10.5695 22.5947 11.0212V11.1695C22.5947 11.6259 22.649 12.0306 22.7574 12.3835C22.8659 12.7318 23.0334 13.0023 23.2597 13.1953C23.4909 13.3835 23.788 13.4776 24.1512 13.4776Z" fill="white"/>
<path d="M13.9554 17.8469V22.9613L16.4781 23.4453V26.2687H6.72707V23.4453L9.24973 22.9613V18.218L2.26392 5.94008L0 5.61741V2.77785H9.39526V5.61741L7.47093 5.89168L11.3843 13.3939L11.74 14.1522L11.8371 14.1361L12.1928 13.4262L16.5428 5.89168L13.9554 5.61741V2.77785H23.1728V5.61741L20.8442 5.94008L13.9554 17.8469Z" fill="white"/>
<path d="M22.2056 26.4064C21.2815 26.4064 20.4735 26.2119 19.7815 25.8231C19.0939 25.4342 18.5618 24.8858 18.1851 24.1779C17.8129 23.47 17.6267 22.6311 17.6267 21.661V21.3399C17.6267 20.4135 17.8085 19.592 18.172 18.8754C18.5355 18.1588 19.0501 17.5995 19.7158 17.1975C20.3859 16.7911 21.183 16.5879 22.1071 16.5879C22.7552 16.5879 23.3618 16.6797 23.9268 16.8632C24.4961 17.0467 25.0042 17.3264 25.4509 17.7022V20.0093H24.0253L23.8283 18.5608C23.675 18.4516 23.5173 18.362 23.3553 18.2921C23.0093 18.1391 22.6085 18.0627 22.1531 18.0627C21.6056 18.0627 21.1392 18.1959 20.7538 18.4625C19.9479 19.0087 19.545 19.9634 19.545 21.3267V21.661C19.545 22.3208 19.6545 22.8998 19.8735 23.3979C20.0925 23.8873 20.4034 24.2675 20.8063 24.5384C21.2092 24.8049 21.6866 24.9382 22.2385 24.9382C22.5144 24.9382 22.7903 24.9076 23.0662 24.8464C23.3465 24.7809 23.6005 24.6979 23.8283 24.5974L24.0253 23.2537H25.4509V25.5347C25.0786 25.7794 24.6144 25.9869 24.0582 26.1573C23.502 26.3234 22.8844 26.4064 22.2056 26.4064Z" fill="white"/>
<path fill-rule="evenodd" clip-rule="evenodd" d="M41.3976 0.0689481C39.7207 -0.28835 38.071 0.778308 37.7129 2.4514L36.0155 10.3813V7.27314H33.037V8.51545L33.9497 8.72721V12.7647C33.6337 13.2259 33.1691 13.4564 32.556 13.4564C32.1692 13.4564 31.8791 13.3388 31.6858 13.1035C31.4971 12.8635 31.4028 12.4706 31.4028 11.9247V7.27314H28.4951V8.51545L29.337 8.72721V11.9106C29.337 12.9882 29.5657 13.7835 30.0232 14.2964C30.4854 14.8046 31.1198 15.0587 31.9263 15.0587C32.3838 15.0587 32.7941 14.9623 33.1573 14.7693C33.5205 14.5764 33.8223 14.3011 34.0629 13.9435L34.2044 14.9105H35.046L34.1328 19.1769H34.0108V19.7469L32.9577 24.6669C32.9291 24.8009 32.9095 24.9347 32.8987 25.0676L32.5393 25.0169C32.5261 24.9295 32.5174 24.8399 32.513 24.7481V24.4597V21.5365C32.513 20.7369 32.2437 20.1229 31.705 19.6947C31.1663 19.2621 30.4327 19.0458 29.5042 19.0458C28.9699 19.0458 28.486 19.1114 28.0524 19.2425C27.6188 19.3735 27.2159 19.544 26.8436 19.7537L26.8699 21.5955H28.2495L28.4006 20.6582C28.5319 20.5664 28.6787 20.4965 28.8407 20.4485C29.0071 20.396 29.1933 20.3698 29.3991 20.3698C29.7977 20.3698 30.0955 20.4769 30.2925 20.691C30.494 20.9007 30.5947 21.176 30.5947 21.5168V22.0412H29.6553C28.959 22.0412 28.3743 22.1373 27.9013 22.3296C27.4283 22.5218 27.0692 22.7862 26.8239 23.1226C26.5786 23.4591 26.456 23.8502 26.456 24.2959C26.456 24.947 26.664 25.4626 27.0801 25.8427C27.4962 26.2185 28.0568 26.4064 28.7619 26.4064C29.1779 26.4064 29.5393 26.3212 29.8458 26.1508C30.1568 25.976 30.4261 25.7444 30.6539 25.456C30.6758 25.5958 30.7108 25.7357 30.759 25.8755C30.8072 26.0153 30.8553 26.1464 30.9035 26.2687H33.0399C33.3712 27.2858 34.222 28.1039 35.3456 28.3433L47.491 30.9311C49.1679 31.2884 50.8176 30.2217 51.1758 28.5486L55.9309 6.33306C56.289 4.65998 55.2199 3.01403 53.543 2.65673L41.3976 0.0689481ZM33.0399 26.2687H33.2816V25.1217L32.8987 25.0676C32.8651 25.4826 32.9164 25.8895 33.0399 26.2687ZM34.0108 19.7469V20.3305L35.0291 20.5271V24.9251L34.1094 25.1217V26.2687H37.8671V25.1217L36.9474 24.9251V21.4513C37.0787 21.2546 37.2298 21.1039 37.4007 20.999C37.5539 20.9073 37.7423 20.8614 37.9656 20.8614H38.0576L39.0102 20.9138L39.2138 19.1507C39.1087 19.1201 38.9883 19.0961 38.8525 19.0786C38.7167 19.0567 38.5919 19.0458 38.478 19.0458C37.7817 19.0458 37.2561 19.4347 36.9014 20.2125L36.8882 20.0552L36.816 19.1769H34.1328L34.0108 19.7469ZM35.046 14.9105H36.9352V13.6753L36.0155 13.4635V10.3813L35.046 14.9105ZM40.9183 13.4635L41.9088 13.6753V14.9105H37.862V13.6753L38.8525 13.4635V8.72721L37.7559 8.51545V7.27314H40.7768L40.8546 8.21899L40.8688 8.3884C41.2508 7.55078 41.8168 7.13197 42.5667 7.13197C42.6894 7.13197 42.8238 7.14374 42.97 7.16727C43.1162 7.18609 43.2459 7.21197 43.3591 7.24491L43.1398 9.14366L42.1139 9.0872H42.0149C41.7744 9.0872 41.5715 9.13661 41.4065 9.23543C41.2225 9.34836 41.0598 9.51071 40.9183 9.72247V13.4635ZM41.0664 25.9672C41.4649 26.26 41.9489 26.4064 42.5182 26.4064C42.9387 26.4064 43.3022 26.3212 43.6087 26.1508C43.9197 25.9804 44.1868 25.7313 44.4102 25.4036L44.5547 26.2687H47.1365V25.1217L46.2168 24.9251V16.0439H43.2737V17.1975L44.2985 17.3941V19.9372C44.0839 19.6532 43.8299 19.4347 43.5365 19.2818C43.243 19.1245 42.9014 19.0458 42.5117 19.0458C41.9511 19.0458 41.4693 19.2031 41.0664 19.5177C40.6678 19.828 40.3591 20.2628 40.1401 20.8221C39.9211 21.3857 39.8116 22.039 39.8116 22.7818V22.9195C39.8116 23.6186 39.9189 24.2303 40.1335 24.7547C40.3481 25.2747 40.6591 25.6789 41.0664 25.9672ZM43.0898 24.9185C43.6153 24.9185 44.0182 24.6979 44.2985 24.2566V21.2481C44.0226 20.7718 43.6241 20.5337 43.1029 20.5337C42.7832 20.5337 42.5226 20.6276 42.3211 20.8155C42.1197 21.0034 41.9708 21.2678 41.8744 21.6086C41.7781 21.945 41.7299 22.3361 41.7299 22.7818V22.9195C41.7299 23.5399 41.835 24.0293 42.0452 24.3876C42.2554 24.7416 42.6036 24.9185 43.0898 24.9185ZM30.0363 24.8137C29.7955 24.9317 29.5414 24.9906 29.2743 24.9906C28.9896 24.9906 28.7663 24.9229 28.6042 24.7875C28.4465 24.6476 28.3677 24.451 28.3677 24.1976C28.3677 23.9267 28.475 23.6951 28.6896 23.5028C28.9086 23.3105 29.2283 23.2144 29.6487 23.2144H30.5947V24.3352C30.4634 24.5318 30.2772 24.6913 30.0363 24.8137Z" fill="white"/>
</svg>
